<svg width="93" height="27" viewBox="0 0 93 27" fill="none" xmlns="http://www.w3.org/2000/svg">
<path fill-rule="evenodd" clip-rule="evenodd" d="M0.0729026 1.98007L0.073564 3.81805L4.16379 8.30542C6.41339 10.7735 8.25136 12.8 8.24813 12.8087C8.24492 12.8175 7.22807 13.9734 5.98848 15.3774C4.74889 16.7814 2.91614 18.8575 1.91572 19.9909L0.0967634 22.0516V23.9319V25.8123H10.0306H19.9645V21.4725V17.1326H17.7352H15.5059V19.1366V21.1405H11.2555C8.9178 21.1405 7.00514 21.1355 7.00514 21.1294C7.00514 21.1232 8.62613 19.2181 10.6073 16.8958L14.2095 12.6733L14.0771 12.5364C13.9745 12.4303 7.08978 4.93669 6.87476 4.69708L6.8251 4.64176H11.0063H15.1874V6.38765V8.13357L17.4106 8.12727L19.6337 8.121L19.6415 6.91618C19.6457 6.25352 19.6417 4.45825 19.6324 2.92672L19.6155 0.14209H9.84389H0.0722656L0.0729026 1.98007ZM70.6259 1.14134C70.5922 1.1463 70.4825 1.16255 70.3822 1.17746C69.8965 1.24955 69.4489 1.47928 69.0506 1.86094C68.6182 2.27525 68.3872 2.6862 68.2725 3.24529C68.2283 3.46056 68.2224 3.55539 68.2325 3.87952C68.2473 4.35326 68.2995 4.57795 68.4811 4.94911C68.8155 5.63267 69.4099 6.12288 70.1604 6.33405C70.376 6.39471 70.4282 6.39953 70.8708 6.3996C71.2938 6.39967 71.3735 6.39308 71.5657 6.34214C72.0545 6.21258 72.3749 6.02969 72.7352 5.67447C73.12 5.29514 73.3245 4.94375 73.4507 4.44505C73.4958 4.26671 73.5034 4.16929 73.5022 3.78116C73.501 3.37096 73.4946 3.3029 73.4371 3.08819C73.1989 2.19959 72.5117 1.48786 71.6517 1.23927C71.3442 1.15036 70.8712 1.10521 70.6259 1.14134ZM41.155 6.31376V8.84636H40.2486H39.3422V10.838V12.8297H40.2486H41.155V19.321V25.8123H43.5191H45.8831V19.3212V12.8301L47.3591 12.8237L48.8351 12.8174L48.8414 10.8319L48.8476 8.84636H47.3654H45.8831V6.31376V3.78116H43.5191H41.155V6.31376ZM56.4417 8.6154C54.8471 8.75733 53.4876 9.26365 52.2897 10.1618C50.3408 11.6231 49.1556 13.8288 48.9433 16.3896C48.9025 16.8826 48.9273 17.8964 48.992 18.3761C49.3374 20.938 50.6243 23.2004 52.5608 24.6501C52.9479 24.9399 53.2976 25.1526 53.7836 25.394C54.489 25.7443 55.1827 25.9657 55.9543 26.0868C56.2578 26.1344 56.4024 26.1421 56.9929 26.1421C57.52 26.1421 57.7371 26.1325 57.9308 26.1007C59.3781 25.8627 60.5346 25.289 61.6002 24.2805L61.8225 24.0701L61.9774 24.9105C62.0626 25.3727 62.1374 25.7647 62.1436 25.7816C62.1525 25.8058 62.576 25.8123 64.1488 25.8123H66.1428V17.317V8.82177H64.3196H62.4964L62.4714 8.90168C62.4576 8.94565 62.3507 9.34673 62.2338 9.79301C62.1169 10.2393 62.0141 10.6123 62.0054 10.622C61.9967 10.6317 61.896 10.5543 61.7815 10.4499C61.2518 9.967 60.7762 9.63538 60.1953 9.3441C59.491 8.99089 58.8533 8.79246 58.034 8.67154C57.7152 8.6245 56.7298 8.58976 56.4417 8.6154ZM31.2214 8.65206C30.2687 8.71653 29.3926 8.9786 28.5942 9.43791C27.8657 9.85697 27.3263 10.2607 26.7958 10.7838C26.582 10.9947 26.5327 11.0326 26.5217 10.9948C26.5143 10.9694 26.4188 10.495 26.3094 9.94054C26.2 9.38607 26.1049 8.91304 26.098 8.88939C26.0863 8.84887 25.9688 8.84636 24.0744 8.84636H22.0632L22.0795 10.879C22.0884 11.9969 22.0958 15.8142 22.0958 19.3619V25.8123H24.4835H26.8712L26.8794 21.2573C26.8885 16.221 26.8795 16.512 27.0468 15.8294C27.3936 14.4147 28.2832 13.5196 29.612 13.2485C29.9435 13.1808 30.4602 13.15 30.8415 13.1751C31.6809 13.2303 32.3032 13.4951 32.7687 13.9952C33.2722 14.5362 33.5366 15.274 33.6088 16.3392C33.6239 16.5616 33.6336 18.468 33.6339 21.2573L33.6342 25.8123H36.0233H38.4124L38.4047 20.2246C38.3963 14.136 38.4056 14.5573 38.2631 13.8132C38.0677 12.7927 37.6504 11.819 37.0891 11.0738C36.7193 10.5829 36.2097 10.1045 35.6798 9.75082C35.3521 9.53208 34.6813 9.19126 34.3095 9.05457C33.7234 8.83908 32.9716 8.69588 32.1889 8.65059C31.715 8.62317 31.6468 8.62327 31.2214 8.65206ZM84.7488 8.65133C84.1241 8.69182 83.4467 8.84105 82.8993 9.05871C82.0757 9.3862 81.0796 10.0432 80.3983 10.7084C80.1827 10.9188 80.054 11.0282 80.0468 11.0069C80.0405 10.9884 79.9459 10.5196 79.8364 9.96513C79.727 9.41066 79.6315 8.93213 79.6243 8.90168L79.6112 8.84636H77.6051H75.5989V16.2557C75.5989 20.3309 75.6062 24.1482 75.6152 24.7387L75.6314 25.8123H78.0153H80.3992L80.407 21.2204C80.4155 16.1861 80.4067 16.4967 80.56 15.8581C80.8218 14.7675 81.4112 13.9716 82.2816 13.5328C82.8333 13.2547 83.6079 13.1216 84.3619 13.1752C85.0057 13.221 85.4283 13.3493 85.851 13.6272C86.1129 13.7993 86.2735 13.9489 86.4526 14.1875C86.808 14.6609 87.033 15.3126 87.1118 16.0964C87.1286 16.2637 87.1374 17.9729 87.1374 21.0817V25.8123H89.5382H91.9389V20.4679C91.9389 17.0863 91.9298 15.0071 91.9141 14.8065C91.7037 12.1157 90.4318 10.1969 88.203 9.20717C87.4828 8.8874 86.6706 8.70554 85.7165 8.65051C85.2458 8.62337 85.1795 8.62342 84.7488 8.65133ZM68.5436 17.317V25.8123H70.8708H73.1981V17.317V8.82177H70.8708H68.5436V17.317ZM58.3223 12.7778C59.45 13.0288 60.4154 13.7513 61.035 14.808C61.3697 15.3788 61.5794 16.0196 61.6619 16.724C61.7031 17.0757 61.678 17.8361 61.6139 18.1782C61.3357 19.6627 60.4365 20.8839 59.1795 21.4847C58.8851 21.6255 58.6342 21.7107 58.2928 21.7859C58.0815 21.8325 57.9727 21.8402 57.5318 21.8399C57.0547 21.8396 56.9961 21.8345 56.7253 21.7706C55.9333 21.5837 55.287 21.2143 54.7131 20.6203C54.2219 20.112 53.8745 19.5379 53.651 18.8653C53.0798 17.1462 53.4814 15.2309 54.6758 13.979C55.3154 13.3085 56.0347 12.9111 56.8949 12.7528C57.2342 12.6904 57.989 12.7036 58.3223 12.7778Z" fill="white"/>
</svg>
